<svg xmlns="http://www.w3.org/2000/svg">
  <defs>
    <symbol viewBox="0 0 30 30" id="icon-user-female">
      <path d="M5 27c0-5 6.957-4.174 8-6.999V19c-3.778 0-5.914-1.884-5.914-1.884 1.974-1.643-.76-13.073 5.963-13.073 0 0 .907-1.043 2.08-1.043 8.218 0 5.51 12.41 7.635 14.154 0 0-1.968 1.846-5.765 1.846v1.001C18.043 22.826 25 22 25 27H5z"/>
    </symbol>
    <symbol viewBox="0 0 30 30" id="icon-user-male">
      <path d="M18 19v-2c.45-.223 1.737-1.755 1.872-2.952.354-.027.91-.352 1.074-1.635.088-.689-.262-1.076-.474-1.198 0 0 .528-1.003.528-2.214 0-2.428-.953-4.5-3-4.5 0 0-.711-1.5-3-1.5-4.242 0-6 2.721-6 6 0 1.104.528 2.214.528 2.214-.212.122-.562.51-.474 1.198.164 1.283.72 1.608 1.074 1.635C10.263 15.245 11.55 16.777 12 17v2c-1 3-9 1-9 8h24c0-7-8-5-9-8z"/>
    </symbol>
  </defs>
</svg>